<svg width="334" height="50" viewBox="0 0 334 50" fill="none" xmlns="http://www.w3.org/2000/svg">
<path d="M3.93066 35C3.13314 35 2.73438 34.5728 2.73438 33.7183V11.7749C2.73438 10.9204 3.13314 10.4932 3.93066 10.4932H17.4487C18.3032 10.4932 18.7305 10.8634 18.7305 11.604V13.6206C18.7305 14.3612 18.3032 14.7314 17.4487 14.7314H7.72461V20.6787H16.0474C16.9019 20.6787 17.3291 21.049 17.3291 21.7896V23.8062C17.3291 24.5467 16.9019 24.917 16.0474 24.917H7.72461V33.7183C7.72461 34.5728 7.32585 35 6.52832 35H3.93066ZM23.4473 35C22.7637 35 22.4219 34.6582 22.4219 33.9746V18.0811C22.4219 17.3975 22.7637 17.0557 23.4473 17.0557H26.1475C26.8311 17.0557 27.1729 17.3975 27.1729 18.0811V19.4824H27.2412C27.5374 18.7533 28.033 18.1095 28.728 17.5513C29.423 16.993 30.2433 16.7139 31.189 16.7139C31.8384 16.7139 32.3739 16.7936 32.7954 16.9531C33.1942 17.1012 33.348 17.3747 33.2568 17.7734L32.7783 19.8071C32.6758 20.2629 32.3682 20.3996 31.8555 20.2173C31.5592 20.1147 31.2744 20.0635 31.001 20.0635C29.9072 20.0635 29.0015 20.7186 28.2837 22.0288C27.5659 23.339 27.207 25.2474 27.207 27.7539V33.9746C27.207 34.6582 26.8652 35 26.1816 35H23.4473ZM34.8975 30.2148C34.8975 27.9362 35.9855 26.2842 38.1616 25.2588C40.3377 24.2334 42.8215 23.6865 45.6128 23.6182V22.9346C45.6128 21.8864 45.3507 21.1458 44.8267 20.7129C44.3026 20.2799 43.5734 20.0635 42.6392 20.0635C41.9784 20.0635 41.3916 20.1603 40.8789 20.354C40.3776 20.5363 39.939 20.7528 39.563 21.0034C39.1984 21.2427 38.868 21.4876 38.5718 21.7383C38.0477 22.194 37.6147 22.2168 37.2729 21.8066L35.8545 20.0635C35.5013 19.6305 35.5868 19.1862 36.1108 18.7305C36.5096 18.3773 36.971 18.0697 37.4951 17.8076C38.0306 17.5456 38.737 17.3006 39.6143 17.0728C40.4915 16.8335 41.6309 16.7139 43.0322 16.7139C45.402 16.7139 47.2192 17.2607 48.4839 18.3545C49.7599 19.4482 50.3979 21.0604 50.3979 23.1909V33.9746C50.3979 34.6582 50.0562 35 49.3726 35H46.5698C45.9546 35 45.647 34.6582 45.647 33.9746V33.4619H45.6128C44.9406 34.1113 44.1317 34.5898 43.186 34.8975C42.2518 35.1937 41.3916 35.3418 40.6055 35.3418C38.737 35.3418 37.3185 34.8861 36.3501 33.9746C35.3817 33.0518 34.8975 31.7985 34.8975 30.2148ZM39.9561 30.1123C39.9561 30.5111 40.0358 30.8586 40.1953 31.1548C40.3548 31.4396 40.6055 31.6504 40.9473 31.7871C41.2891 31.9238 41.6707 31.9922 42.0923 31.9922C42.6733 31.9922 43.2373 31.9124 43.7842 31.7529C44.3311 31.5934 44.9406 31.2174 45.6128 30.625V26.9165C43.6987 27.133 42.417 27.4121 41.7676 27.7539C41.1182 28.0957 40.651 28.4489 40.3662 28.8135C40.0928 29.1781 39.9561 29.611 39.9561 30.1123ZM56.0889 35C55.4053 35 55.0635 34.6582 55.0635 33.9746V18.0811C55.0635 17.3975 55.4053 17.0557 56.0889 17.0557H58.7891C59.4727 17.0557 59.8145 17.3975 59.8145 18.0811V19.0723H59.8828C60.2132 18.3431 60.7715 17.7677 61.5576 17.3462C62.3438 16.9246 63.0786 16.7139 63.7622 16.7139C65.1294 16.7139 66.189 17.0329 66.9409 17.6709C67.7043 18.3089 68.2284 19.021 68.5132 19.8071H68.5815C69.5728 18.5197 70.4671 17.6823 71.2646 17.2949C72.0736 16.9076 73.1047 16.7139 74.3579 16.7139C76.0441 16.7139 77.4626 17.2721 78.6133 18.3887C79.7754 19.5052 80.3564 21.5446 80.3564 24.5068V33.9746C80.3564 34.6582 80.0146 35 79.3311 35H76.5967C75.9131 35 75.5713 34.6582 75.5713 33.9746V25.7373C75.5713 23.2536 75.4004 21.687 75.0586 21.0376C74.7282 20.3882 74.1357 20.0635 73.2812 20.0635C72.4837 20.0635 71.7546 20.5306 71.0938 21.4648C70.4329 22.3991 70.1025 24.3245 70.1025 27.2412V33.9746C70.1025 34.6582 69.7607 35 69.0771 35H66.3428C65.6592 35 65.3174 34.6582 65.3174 33.9746V25.7373C65.3174 23.2536 65.1465 21.687 64.8047 21.0376C64.4743 20.3882 63.8818 20.0635 63.0273 20.0635C62.2298 20.0635 61.5007 20.5306 60.8398 21.4648C60.179 22.3877 59.8486 24.3132 59.8486 27.2412V33.9746C59.8486 34.6582 59.5068 35 58.8232 35H56.0889ZM84.0137 26.0278C84.0137 23.1453 84.7314 20.8724 86.167 19.209C87.6139 17.5456 89.6533 16.7139 92.2852 16.7139C95.3385 16.7139 97.6058 17.5 99.0869 19.0723C100.568 20.6445 101.309 23.1738 101.309 26.6602C101.309 27.3438 100.99 27.6855 100.352 27.6855H89.0723C89.2546 29.5768 89.7217 30.7674 90.4736 31.2573C91.2256 31.7472 92.0972 31.9922 93.0884 31.9922C94.034 31.9922 94.7575 31.8669 95.2588 31.6162C95.7601 31.3656 96.1816 31.0238 96.5234 30.5908C96.9108 30.0895 97.3893 30.0098 97.959 30.3516L99.668 31.394C100.34 31.8042 100.437 32.2941 99.9585 32.8638C99.2635 33.6955 98.4489 34.3164 97.5146 34.7266C96.5804 35.1367 95.105 35.3418 93.0884 35.3418C89.8185 35.3418 87.4886 34.5101 86.0986 32.8467C84.7087 31.1833 84.0137 28.9103 84.0137 26.0278ZM89.0894 24.2676H96.5234C96.5234 23.0371 96.2158 22.0345 95.6006 21.2598C94.9854 20.4736 94.0055 20.0806 92.6611 20.0806C91.5902 20.0806 90.7414 20.4565 90.1147 21.2085C89.4881 21.9491 89.1463 22.9688 89.0894 24.2676ZM106.641 35C105.843 35 105.444 34.5728 105.444 33.7183V11.7749C105.444 10.9204 105.843 10.4932 106.641 10.4932H120.159C121.013 10.4932 121.44 10.8634 121.44 11.604V13.6206C121.44 14.3612 121.013 14.7314 120.159 14.7314H110.435V20.6787H118.757C119.612 20.6787 120.039 21.049 120.039 21.7896V23.8062C120.039 24.5467 119.612 24.917 118.757 24.917H110.435V33.7183C110.435 34.5728 110.036 35 109.238 35H106.641ZM126.157 35C125.474 35 125.132 34.6582 125.132 33.9746V13.7915C125.132 13.2788 125.251 12.8117 125.491 12.3901L126.807 10.083C127.057 9.65007 127.354 9.43359 127.695 9.43359H128.892C129.575 9.43359 129.917 9.77539 129.917 10.459V33.9746C129.917 34.6582 129.575 35 128.892 35H126.157ZM133.608 26.0278C133.608 23.1226 134.355 20.8439 135.847 19.1919C137.351 17.5399 139.584 16.7139 142.546 16.7139C145.509 16.7139 147.736 17.5399 149.229 19.1919C150.732 20.8439 151.484 23.1226 151.484 26.0278C151.484 28.9331 150.732 31.2118 149.229 32.8638C147.736 34.5158 145.509 35.3418 142.546 35.3418C139.584 35.3418 137.351 34.5158 135.847 32.8638C134.355 31.2118 133.608 28.9331 133.608 26.0278ZM138.667 26.0278C138.667 28.1925 138.997 29.7306 139.658 30.6421C140.33 31.5422 141.293 31.9922 142.546 31.9922C143.8 31.9922 144.757 31.5422 145.417 30.6421C146.09 29.7306 146.426 28.1925 146.426 26.0278C146.426 23.8631 146.09 22.3307 145.417 21.4307C144.757 20.5192 143.8 20.0635 142.546 20.0635C141.293 20.0635 140.33 20.5192 139.658 21.4307C138.997 22.3307 138.667 23.8631 138.667 26.0278ZM153.945 18.3887C153.695 17.5 153.883 17.0557 154.509 17.0557H157.397C157.944 17.0557 158.286 17.3462 158.423 17.9272L160.73 27.9419C160.867 28.5229 160.986 29.0812 161.089 29.6167C161.191 30.1522 161.254 30.5908 161.277 30.9326H161.379C161.402 30.5908 161.465 30.1465 161.567 29.5996C161.67 29.0413 161.79 28.4888 161.926 27.9419L164.353 17.9272C164.49 17.3462 164.832 17.0557 165.378 17.0557H168.489C169.036 17.0557 169.377 17.3462 169.514 17.9272L171.941 27.9419C172.078 28.4888 172.197 29.0413 172.3 29.5996C172.402 30.1465 172.465 30.5908 172.488 30.9326H172.59C172.613 30.5908 172.676 30.1522 172.778 29.6167C172.881 29.0812 173 28.5229 173.137 27.9419L175.444 17.9272C175.581 17.3462 175.923 17.0557 176.47 17.0557H179.358C179.985 17.0557 180.173 17.5 179.922 18.3887L175.479 33.855C175.262 34.6183 174.846 35 174.231 35H171.138C170.488 35 170.072 34.6183 169.89 33.855L167.412 23.7207C167.264 23.1396 167.156 22.6725 167.087 22.3193C167.03 21.9661 166.991 21.5731 166.968 21.1401H166.899C166.877 21.5731 166.831 21.9661 166.763 22.3193C166.706 22.6725 166.603 23.1396 166.455 23.7207L163.977 33.855C163.795 34.6183 163.379 35 162.729 35H159.636C159.021 35 158.605 34.6183 158.389 33.855L153.945 18.3887ZM196.157 35C195.36 35 194.961 34.5728 194.961 33.7183V11.7749C194.961 10.9204 195.36 10.4932 196.157 10.4932H202.122C207.362 10.4932 210.906 11.5527 212.751 13.6719C214.609 15.791 215.537 18.8045 215.537 22.7124C215.537 26.6203 214.609 29.6452 212.751 31.7871C210.906 33.929 207.362 35 202.122 35H196.157ZM199.951 30.7617H201.797C205.329 30.7617 207.613 30.1066 208.65 28.7964C209.687 27.4748 210.205 25.4468 210.205 22.7124C210.205 19.978 209.687 17.9614 208.65 16.6626C207.613 15.3524 205.329 14.6973 201.797 14.6973H199.951V30.7617ZM218.374 26.0278C218.374 23.1453 219.092 20.8724 220.527 19.209C221.974 17.5456 224.014 16.7139 226.646 16.7139C229.699 16.7139 231.966 17.5 233.447 19.0723C234.928 20.6445 235.669 23.1738 235.669 26.6602C235.669 27.3438 235.35 27.6855 234.712 27.6855H223.433C223.615 29.5768 224.082 30.7674 224.834 31.2573C225.586 31.7472 226.458 31.9922 227.449 31.9922C228.394 31.9922 229.118 31.8669 229.619 31.6162C230.12 31.3656 230.542 31.0238 230.884 30.5908C231.271 30.0895 231.75 30.0098 232.319 30.3516L234.028 31.394C234.701 31.8042 234.797 32.2941 234.319 32.8638C233.624 33.6955 232.809 34.3164 231.875 34.7266C230.941 35.1367 229.465 35.3418 227.449 35.3418C224.179 35.3418 221.849 34.5101 220.459 32.8467C219.069 31.1833 218.374 28.9103 218.374 26.0278ZM223.45 24.2676H230.884C230.884 23.0371 230.576 22.0345 229.961 21.2598C229.346 20.4736 228.366 20.0806 227.021 20.0806C225.951 20.0806 225.102 20.4565 224.475 21.2085C223.848 21.9491 223.507 22.9688 223.45 24.2676ZM239.036 33.8037C238.477 33.4049 238.324 32.9777 238.574 32.522L239.446 30.9326C239.753 30.363 240.232 30.2946 240.881 30.7275C241.531 31.1605 242.294 31.4795 243.171 31.6846C244.06 31.8896 244.869 31.9922 245.598 31.9922C246.111 31.9922 246.589 31.9409 247.034 31.8384C247.478 31.7358 247.854 31.5365 248.162 31.2402C248.469 30.944 248.623 30.5111 248.623 29.9414C248.623 29.5996 248.532 29.3091 248.35 29.0698C248.167 28.8306 247.934 28.6483 247.649 28.5229C247.364 28.3976 247.062 28.2951 246.743 28.2153C246.322 28.1128 245.712 27.9419 244.915 27.7026C244.128 27.4634 243.371 27.1842 242.642 26.8652C242.038 26.6032 241.445 26.2386 240.864 25.7715C240.295 25.293 239.873 24.7632 239.6 24.1821C239.338 23.6011 239.207 22.8833 239.207 22.0288C239.207 20.8781 239.537 19.8698 240.198 19.0039C240.87 18.138 241.736 17.5399 242.795 17.2095C243.855 16.8791 245.177 16.7139 246.76 16.7139C247.831 16.7139 248.874 16.8677 249.888 17.1753C250.902 17.4829 251.625 17.7734 252.058 18.0469C252.742 18.4798 252.913 18.9412 252.571 19.4312L251.528 20.9521C251.209 21.4079 250.697 21.4421 249.99 21.0547C249.455 20.7585 248.925 20.5192 248.401 20.3369C247.888 20.1546 247.313 20.0635 246.675 20.0635C246.242 20.0635 245.826 20.109 245.427 20.2002C245.028 20.2913 244.687 20.4622 244.402 20.7129C244.128 20.9635 243.992 21.2939 243.992 21.7041C243.992 22.137 244.117 22.4788 244.368 22.7295C244.63 22.9688 244.926 23.1453 245.256 23.2593C245.598 23.3732 245.923 23.4814 246.23 23.584C246.868 23.7891 247.512 23.9884 248.162 24.1821C248.811 24.3644 249.472 24.5866 250.144 24.8486C250.725 25.0765 251.289 25.4012 251.836 25.8228C252.383 26.2443 252.782 26.7798 253.032 27.4292C253.283 28.0786 253.408 28.8192 253.408 29.6509C253.408 30.756 253.078 31.7814 252.417 32.7271C251.756 33.6727 250.885 34.3449 249.802 34.7437C248.72 35.1424 247.461 35.3418 246.025 35.3418C244.419 35.3418 243.052 35.2279 241.924 35C240.796 34.7721 239.833 34.3734 239.036 33.8037ZM257.612 35C256.929 35 256.587 34.6582 256.587 33.9746V18.0811C256.587 17.3975 256.929 17.0557 257.612 17.0557H260.347C261.03 17.0557 261.372 17.3975 261.372 18.0811V33.9746C261.372 34.6582 261.03 35 260.347 35H257.612ZM257.612 14.4238C256.929 14.4238 256.587 14.082 256.587 13.3984V11.2109C256.587 10.5273 256.929 10.1855 257.612 10.1855H260.347C261.03 10.1855 261.372 10.5273 261.372 11.2109V13.3984C261.372 14.082 261.03 14.4238 260.347 14.4238H257.612ZM265.063 26.0278C265.063 23.5213 265.605 21.3452 266.687 19.4995C267.781 17.6424 269.666 16.7139 272.344 16.7139C273.369 16.7139 274.246 16.862 274.976 17.1582C275.705 17.4544 276.366 18.0924 276.958 19.0723H277.026L277.095 18.0811C277.14 17.3975 277.448 17.0557 278.018 17.0557H280.718C281.401 17.0557 281.743 17.3975 281.743 18.0811V34.812C281.743 37.6034 280.991 39.5288 279.487 40.5884C277.983 41.6479 275.807 42.1777 272.959 42.1777C271.751 42.1777 270.635 42.1151 269.609 41.9897C268.584 41.8644 267.547 41.5511 266.499 41.0498C265.952 40.7878 265.861 40.2922 266.226 39.563L266.841 38.3325C267.091 37.8312 267.507 37.7173 268.088 37.9907C268.556 38.2072 269.131 38.4009 269.814 38.5718C270.509 38.7427 271.387 38.8281 272.446 38.8281C273.905 38.8281 275.021 38.5547 275.796 38.0078C276.571 37.4723 276.958 36.2931 276.958 34.4702V34.1797C276.958 33.724 276.981 33.2682 277.026 32.8125H276.958C276.366 33.7923 275.705 34.4303 274.976 34.7266C274.246 35.0228 273.369 35.1709 272.344 35.1709C269.666 35.1709 267.781 34.248 266.687 32.4023C265.605 30.5452 265.063 28.4204 265.063 26.0278ZM270.122 26.0278C270.122 27.7368 270.356 29.1325 270.823 30.2148C271.301 31.2858 272.31 31.8213 273.848 31.8213C274.702 31.8213 275.431 31.3428 276.035 30.3857C276.65 29.4173 276.958 28.1641 276.958 26.626V25.2588C276.958 23.7207 276.65 22.4731 276.035 21.5161C275.431 20.5477 274.702 20.0635 273.848 20.0635C272.31 20.0635 271.301 20.6047 270.823 21.687C270.356 22.758 270.122 24.2049 270.122 26.0278ZM287.417 35C286.733 35 286.392 34.6582 286.392 33.9746V18.0811C286.392 17.3975 286.733 17.0557 287.417 17.0557H290.117C290.801 17.0557 291.143 17.3975 291.143 18.0811V19.0723H291.211C291.735 18.1722 292.402 17.557 293.21 17.2266C294.019 16.8848 294.993 16.7139 296.133 16.7139C297.91 16.7139 299.38 17.2721 300.542 18.3887C301.704 19.5052 302.285 21.5446 302.285 24.5068V33.9746C302.285 34.6582 301.943 35 301.26 35H298.525C297.842 35 297.5 34.6582 297.5 33.9746V25.7373C297.5 23.2536 297.329 21.687 296.987 21.0376C296.646 20.3882 295.911 20.0635 294.783 20.0635C293.586 20.0635 292.686 20.5306 292.083 21.4648C291.479 22.3877 291.177 24.3132 291.177 27.2412V33.9746C291.177 34.6582 290.835 35 290.151 35H287.417ZM306.541 33.8037C305.982 33.4049 305.828 32.9777 306.079 32.522L306.951 30.9326C307.258 30.363 307.737 30.2946 308.386 30.7275C309.036 31.1605 309.799 31.4795 310.676 31.6846C311.565 31.8896 312.374 31.9922 313.103 31.9922C313.616 31.9922 314.094 31.9409 314.539 31.8384C314.983 31.7358 315.359 31.5365 315.667 31.2402C315.974 30.944 316.128 30.5111 316.128 29.9414C316.128 29.5996 316.037 29.3091 315.854 29.0698C315.672 28.8306 315.439 28.6483 315.154 28.5229C314.869 28.3976 314.567 28.2951 314.248 28.2153C313.826 28.1128 313.217 27.9419 312.419 27.7026C311.633 27.4634 310.876 27.1842 310.146 26.8652C309.543 26.6032 308.95 26.2386 308.369 25.7715C307.799 25.293 307.378 24.7632 307.104 24.1821C306.842 23.6011 306.711 22.8833 306.711 22.0288C306.711 20.8781 307.042 19.8698 307.703 19.0039C308.375 18.138 309.241 17.5399 310.3 17.2095C311.36 16.8791 312.681 16.7139 314.265 16.7139C315.336 16.7139 316.379 16.8677 317.393 17.1753C318.407 17.4829 319.13 17.7734 319.563 18.0469C320.247 18.4798 320.417 18.9412 320.076 19.4312L319.033 20.9521C318.714 21.4079 318.201 21.4421 317.495 21.0547C316.96 20.7585 316.43 20.5192 315.906 20.3369C315.393 20.1546 314.818 20.0635 314.18 20.0635C313.747 20.0635 313.331 20.109 312.932 20.2002C312.533 20.2913 312.192 20.4622 311.907 20.7129C311.633 20.9635 311.497 21.2939 311.497 21.7041C311.497 22.137 311.622 22.4788 311.873 22.7295C312.135 22.9688 312.431 23.1453 312.761 23.2593C313.103 23.3732 313.428 23.4814 313.735 23.584C314.373 23.7891 315.017 23.9884 315.667 24.1821C316.316 24.3644 316.977 24.5866 317.649 24.8486C318.23 25.0765 318.794 25.4012 319.341 25.8228C319.888 26.2443 320.286 26.7798 320.537 27.4292C320.788 28.0786 320.913 28.8192 320.913 29.6509C320.913 30.756 320.583 31.7814 319.922 32.7271C319.261 33.6727 318.389 34.3449 317.307 34.7437C316.225 35.1424 314.966 35.3418 313.53 35.3418C311.924 35.3418 310.557 35.2279 309.429 35C308.301 34.7721 307.338 34.3734 306.541 33.8037ZM326.177 35C325.379 35 324.98 34.5728 324.98 33.7183V31.4282C324.98 30.5737 325.379 30.1465 326.177 30.1465H328.774C329.572 30.1465 329.971 30.5737 329.971 31.4282V33.7183C329.971 34.5728 329.572 35 328.774 35H326.177Z" fill="black"/>
<rect x="53" y="46" width="203" height="1" fill="black"/>
</svg>
